<?xml version="1.0" encoding="utf-8"?>
<!-- Generator: Adobe Illustrator 19.0.0, SVG Export Plug-In . SVG Version: 6.00 Build 0)  -->
<svg version="1.1" id="Layer_1" xmlns="http://www.w3.org/2000/svg" xmlns:xlink="http://www.w3.org/1999/xlink" x="0px" y="0px"
	 viewBox="74.9 71.6 499.1 74.7" style="enable-background:new 74.9 71.6 499.1 74.7;" xml:space="preserve">
<style type="text/css">
	.st0{fill:#00506B;stroke-miterlimit:10;stroke-dasharray:30;stroke-dashoffset:20;}
 	.st0 {
    stroke: #000;
    stroke-width: 4;
    stroke-dasharray: 500px;
    stroke-dashoffset: 700px;
    animation-name: draw;
    animation-duration: 3s;
    animation-fill-mode: forwards; // Stay on the last frame
    animation-iteration-count: 1; // Run only once
    animation-timing-function: linear forwards;
  }

@keyframes draw {
  to {
  	fill:#0691A4;
	opacity:1;
    stroke-dashoffset: 0;
	stroke: #fff;
  }
}
</style>
<g id="XMLID_2_">
	<path id="XMLID_3_" class="st0" d="M84,74.2c3.6,0.1,13.2,7.1,28.8,20.8c6,5.7,10.3,9.5,13.1,11.3c4.5,2.7,8.1,4.1,10.9,4.1
		c3.4,0,5.8-1.7,7.1-5.1c0.6-0.6,0.9-5,1.1-13.1c0.7-5.7,1.3-9.5,2.1-11.3c1.3-4.4,2.7-6.5,4.3-6.5h0.5c2,0,3.7,4.6,5.2,13.7
		c0.9,6.3,1.3,12.4,1.3,18.5v5.5c0,11.6-1.3,21.2-3.8,28.8c-1,2.3-1.9,3.4-2.8,3.4h-7.1c-17.7-16.8-28-26.6-31-29.2
		c-6.1-4.7-11.1-7-15.2-7c-4.5,0-7.1,2.9-7.8,8.6c0,12.7-1.6,21.5-4.7,26.4c-0.7,0.8-1.4,1.2-2.1,1.2h-0.4c-2.2,0-4-4.9-5.6-14.7
		c-0.7-4.9-1-9.9-1-14.8V76.9c0-1.4,2.1-2.3,6.2-2.7C83.1,74.2,84,74.2,84,74.2z"/>
	<path id="XMLID_5_" class="st0" d="M168.6,74.2h0.2c2.6,0,4.6,6.6,6.1,19.9c0.4,4.5,0.6,8.9,0.6,13v4c0,12-1.3,21.9-3.8,29.5
		c-1.1,2.3-2,3.4-2.8,3.4h-0.3c-2.6,0-4.6-6.7-6.1-20.2c-0.4-4.4-0.6-8.9-0.6-13.4v-2.8c0-13.2,1.4-23.6,4.2-31
		C167,75,167.8,74.2,168.6,74.2z"/>
	<path id="XMLID_7_" class="st0" d="M185.9,74h41.8c7,0,17.2,2.5,30.6,7.4c1.4,0.7,2.2,1.1,2.2,1.2v11.5c0,5.5-2.8,10.5-8.4,14.9
		c-3.4,2-6.6,3-9.6,3h-10.4c-2.1,0-3.2,0.6-3.2,1.9c0,3.5,6.9,10.7,20.6,21.4c6.8,5.7,10.3,8.6,10.3,8.7l-0.2,0.1h-10.7
		c-4.1,0-9.6-2-16.6-5.9c-2.1-1.1-7-5-14.6-11.6c-11.3-9.2-17.2-14.1-17.7-14.7v-5.5c0-4.5,0.9-7.2,2.6-8.1h28.6
		c6.3,0,11.5-0.8,15.7-2.4V90c-4.2-1.6-9.9-2.4-16.9-2.4h-37c-0.2,0.9-0.3,3.4-0.3,7.4v34c0,6.2-1.5,10.9-4.4,14.2
		c-0.8,0.7-1.5,1-2.1,1h-0.5c-2.6,0-4.6-6.8-6.1-20.3c-0.4-4.4-0.6-8.9-0.6-13.4v-2.7c0-13,1.4-23.2,4.2-30.8
		C184.1,75,185.1,74,185.9,74z"/>
	<path id="XMLID_9_" class="st0" d="M264.5,73.6h0.4c3.4,0.7,8.2,5.9,14.5,15.6c2.7,4.5,5.4,9.5,8.3,15.2c3.8,5.5,7.7,8.2,11.9,8.2
		c5.9,0,11.1-5.2,15.7-15.6c3.8-7.1,8.2-13.6,13.2-19.5c2.7-2.6,4.6-3.9,5.8-3.9h0.4c1,0,1.5,0.8,1.5,2.3V77
		c-0.6,8.4-6.3,22.7-17.2,43c-4.3,7.5-8.9,14.2-13.7,20.1c-2.2,2.3-3.9,3.6-5.3,3.9h-0.7c-2.6-0.7-6.6-4.9-12-12.7
		c-6.4-9.9-11.9-19.9-16.4-30c-5.1-11.8-7.7-20.1-7.7-24.6v-0.5C263,74.5,263.5,73.6,264.5,73.6z"/>
	<path id="XMLID_11_" class="st0" d="M375.2,73.6h0.3c2.7,0,7.7,5.7,15,17.1c7.5,12.2,13.5,24.4,18,36.7c2.2,6.1,3.3,10.5,3.3,13.2
		v1.1c0,1.1-0.4,1.9-1.1,2.3H410c-2.9,0-7.8-5.5-14.9-16.4c-2.5-4.1-4.9-8.6-7.3-13.5c-3.8-6-7.8-9-11.8-9h-1.3
		c-4.4,0-8.6,3.6-12.7,10.7c-3.1,6.8-7.3,13.7-12.6,20.8c-4.1,4.9-7,7.4-8.7,7.4h-0.4c-1,0-1.5-0.9-1.5-2.6V141
		c0.7-9.8,7.1-25.5,19.4-47.1C366.6,80.4,372.3,73.6,375.2,73.6z"/>
	<path id="XMLID_13_" class="st0" d="M421.2,74.2c3.6,0.1,13.2,7.1,28.8,20.8c6,5.7,10.3,9.5,13.1,11.3c4.5,2.7,8.1,4.1,10.9,4.1
		c3.4,0,5.8-1.7,7.1-5.1c0.6-0.6,0.9-5,1.1-13.1c0.7-5.7,1.3-9.5,2.1-11.3c1.3-4.4,2.7-6.5,4.3-6.5h0.5c2,0,3.7,4.6,5.2,13.7
		c0.9,6.3,1.3,12.4,1.3,18.5v5.5c0,11.6-1.3,21.2-3.8,28.8c-1,2.3-1.9,3.4-2.8,3.4h-7c-17.7-16.8-28-26.6-31-29.2
		c-6.1-4.7-11.1-7-15.2-7c-4.5,0-7.1,2.9-7.8,8.6c0,12.7-1.6,21.5-4.7,26.4c-0.7,0.8-1.4,1.2-2.1,1.2h-0.4c-2.2,0-4-4.9-5.6-14.7
		c-0.7-4.9-1-9.9-1-14.8V76.9c0-1.4,2.1-2.3,6.2-2.7C420.4,74.2,421.2,74.2,421.2,74.2z"/>
	<path id="XMLID_15_" class="st0" d="M535.4,73.6h0.3c2.7,0,7.7,5.7,15,17.1c7.5,12.2,13.5,24.4,18,36.7c2.2,6.1,3.3,10.5,3.3,13.2
		v1.1c0,1.1-0.4,1.9-1.1,2.3h-0.7c-2.9,0-7.8-5.5-14.9-16.4c-2.5-4.1-4.9-8.6-7.3-13.5c-3.8-6-7.8-9-11.8-9h-1.3
		c-4.4,0-8.6,3.6-12.7,10.7c-3.1,6.8-7.3,13.7-12.6,20.8c-4.1,4.9-7,7.4-8.7,7.4h-0.4c-1,0-1.5-0.9-1.5-2.6V141
		c0.7-9.8,7.1-25.5,19.4-47.1C526.8,80.4,532.5,73.6,535.4,73.6z"/>
</g>
</svg>
