<svg version="1.1" id="Layer_1" xmlns="http://www.w3.org/2000/svg" xmlns:xlink="http://www.w3.org/1999/xlink" x="0px" y="0px"
	 viewBox="0 0 960 560" style="enable-background:new 0 0 960 560;" xml:space="preserve">
<style type="text/css">
	.st0{fill:none;stroke:#000000;stroke-width:4;stroke-linejoin:round;stroke-miterlimit:10;}
	.st0{
		stroke:hsla(50,100%,33%,1.00)
		stroke-dasharray:800;
		stroke-dashoffset:800;
		-webkit-animation:dash 5s linear forwards;
		-o-animation:dash 5s linear forwards;
		-moz-animation:dash 5s linear forwards;
		animation:dash 5s linear forwards;
	}
	@-webkit-keyframes dash {
		to{
			stroke-dashoffset:0;
		}
	}
</style>
<g id="XMLID_1_">
	<path id="XMLID_4_" class="st0" d="M400,121.1c0.4,0.6,0.6,1.2,0.5,1.7c-0.1,0.5-0.6,0.1-1.4-1.4c-3.6-5.4-7.4-8.3-11.6-8.5
		c-4.2-0.2-8.4,1.4-12.7,4.7c-4.3,3.3-8.5,7.8-12.6,13.5c-4.1,5.6-7.8,11.4-11.2,17.2c-3.4,5.9-6.3,11.4-8.8,16.6
		c-2.5,5.2-4.2,9.1-5,11.5c-7.3,19-14.3,37.9-20.8,56.7c-6.5,18.9-13.1,37.8-19.8,56.7c-3.1,9.3-6.2,18.8-9.1,28.4
		c-2.9,9.7-6,19.4-9.1,29s-6.6,19.3-10.2,28.7c-3.7,9.5-7.8,18.6-12.4,27.2c-1.5,3-3.3,6.5-5.5,10.4c-2.2,3.9-4.7,7.7-7.5,11.3
		c-2.8,3.6-6,6.7-9.6,9.2c-3.6,2.5-7.5,3.8-12,3.8c-0.6,0-1.2-0.3-1.7-0.8c-0.5-0.5,0.3-1,2.4-1.4c6.1-1,11.4-4.1,16-9.4
		c4.6-5.2,8.7-11.3,12.1-18.3c3.5-7,6.3-14,8.5-21.2c2.2-7.2,4-13.2,5.5-18c4.4-14.9,8.8-29.8,13.2-44.5c4.4-14.7,9-29.5,13.8-44.5
		c5-16.5,10.2-33,15.6-49.3c5.3-16.3,10.6-32.8,15.9-49.3c1.7-5.4,3.8-12,6.4-19.8c2.6-7.8,5.9-15.4,9.8-22.8
		c3.9-7.5,8.3-14.2,13.4-20.1c5-5.9,10.7-9.8,17-11.6c2.1-0.6,4.6-0.8,7.4-0.6c2.8,0.2,5.7,0.9,8.7,2c2.9,1.1,5.7,2.7,8.3,4.8
		C395.8,115.5,398.1,118.1,400,121.1z M525.2,111.7c5.5,13.3,7.8,27.1,7.1,41.3c-0.7,14.2-4.5,27.7-11.2,40.4
		c-3.4,5.9-7.3,11.4-11.8,16.6c-4.5,5.2-9.5,9.9-14.9,13.9c-5.5,4-11.3,7.7-17.6,10.9c-6.3,3.2-12.7,6-19.2,8.2
		c-13.4,4.4-27.5,7.6-42.2,9.4c-7.5,0.8-15.3,1.4-23.3,1.8c-10.7,0.6-21.4,1-32.2,1.1c-10.8,0.1-21.5-0.4-32.2-1.4
		c-2.1-0.2-4.1-0.4-6-0.6c-1.9-0.2-3.8-0.4-5.7-0.6c0.2,0.4,0.3,0.7,0.3,0.9c0,0.2,0.1,0.5,0.3,0.9c1.7,7.1,2.9,14.1,3.8,21
		c0.8,7,2,14,3.5,21c1.7,7.1,3.9,13.9,6.6,20.6c2.7,6.7,6.6,12.8,11.6,18.5c5.5,5.8,11.5,10.9,18.1,15.3c6.6,4.3,13.9,7.4,21.9,9.2
		c7.3,1.8,14.6,2.3,21.9,1.5c7.2-0.8,14.3-2.4,21.2-4.8c6.9-2.4,13.6-5.4,20.1-9.1c6.5-3.6,12.7-7.5,18.6-11.5
		c1.3-1,2.5-1.5,3.6-1.4c1.1,0.1,2,0.6,2.5,1.4c0.5,0.8,0.7,1.7,0.5,2.7c-0.2,1-1.1,1.9-2.5,2.7c-5.7,3.2-11.6,6.3-17.8,9.2
		c-6.2,2.9-12.5,5.4-18.9,7.6c-6.4,2.1-12.9,3.7-19.5,4.7c-6.6,1-13.3,1.2-20,0.6c-7.5-0.8-14.7-2.7-21.5-5.6
		c-6.8-2.9-13.1-6.7-18.7-11.3c-3.1-2.6-6.1-5.3-9-8.2c-2.8-2.8-5.4-6-7.7-9.4c-2.1-2.8-3.9-5.9-5.3-9.1c-1.5-3.2-2.7-6.6-3.8-10
		c-2.3-6.9-4-13.8-5.2-20.7c-1.2-7-2.3-14-3.3-21c-0.4-2.8-0.9-5.5-1.4-8.2c-0.5-2.6-1.1-5.2-1.7-7.9c-2.9-0.4-5.9-0.9-8.8-1.5
		c-2.9-0.6-5.9-1.4-8.8-2.4c-3.8-1-7.5-2.4-11.2-4.2c-3.7-1.8-6.8-4.1-9.3-7c-2.5-2.6-4.1-6.1-4.7-10.6c-0.4-1.8-0.5-3.8-0.2-5.9
		c0.3-2.1,1.4-3.7,3.3-4.7c1.7-1,3.6-1.5,5.7-1.4c2.1,0.1,4,0.5,5.7,1.1c4.6,1.2,9.1,3.4,13.5,6.7c1,0.6,2.8,2.3,5.3,5.1
		c2.5,2.8,4.3,5.5,5.3,8.2c1.3,2.4,2.3,4.8,3.1,7.3c0.8,2.4,1.7,4.9,2.5,7.6c2.1,0.4,4.1,0.7,6.1,0.9c2,0.2,4,0.4,6.1,0.6
		c5.2,0.4,10.2,0.7,14.8,0.9c4.6,0.2,9.1,0.3,13.4,0.3c4.3,0,8.7-0.1,13.2-0.3c4.5-0.2,9.5-0.5,14.9-0.9c4-0.4,7.9-0.7,11.8-0.9
		c3.9-0.2,7.8-0.6,11.8-1.2c7.3-1,14.5-2.3,21.5-3.8c7-1.5,13.9-3.5,20.6-5.9c6.7-2.2,13.2-4.9,19.5-8c6.3-3.1,12.2-6.8,17.6-11
		c11.3-9.1,19.9-19.7,25.8-31.8c6.5-12.9,9.5-26.6,9.1-41.1c-0.4-13.9-3.8-27.2-10.1-39.9c-6.5-12.7-15.3-23.9-26.3-33.6
		c-11-9.7-23.5-17.1-37.6-22.4c-14.5-5.4-29.6-8.8-45.3-10c-15.7-1.2-31.4-0.8-46.9,1.2c-8,1-15.4,2.2-22.2,3.6
		c-6.8,1.4-13.5,3.2-20,5.3c-6.5,2.1-12.9,4.6-19.2,7.6c-6.3,2.9-12.8,6.4-19.5,10.4c-6.1,3.6-11.9,7.6-17.3,11.8
		c-5.5,4.2-10.6,9-15.4,14.2c-4.8,5.2-9.1,10.9-12.7,16.9c-3.7,6.1-5.9,12.6-6.8,19.7c-0.8,6.9,0.4,13.5,3.8,19.8
		c3.4,6.4,8.1,11.2,14.2,14.7c5.5,3,11.3,4.7,17.5,5.1c6.2,0.4,12.3,0,18.4-1.2c6.9-1.4,13.7-3.3,20.3-5.7s12.9-5.1,19-8.2
		c11.7-5.8,20.9-14.8,27.4-26.9c0.2-0.2,0.6,0.2,1.3,1.1c0.6,0.9,1.3,2,2,3.2c0.7,1.2,1.4,2.4,1.9,3.5c0.5,1.1,0.7,1.7,0.5,1.7
		l-16,10c-5.9,3.4-11.9,6.7-17.9,9.7c-6.1,3-12.4,5.6-18.9,7.9c-6.1,2.2-12.4,4-18.9,5.4c-6.5,1.4-13,1.9-19.5,1.5
		c-6.3-0.6-12.1-2.4-17.5-5.3c-5.3-2.9-9.8-7-13.4-12.3c-4-5.8-6.1-12.2-6.3-19.1c0-3.2,0.4-6.5,1.1-9.7c0.7-3.2,1.7-6.4,3-9.4
		c2.9-6.5,6.7-12.4,11.2-17.8c4.5-5.4,9.4-10.5,14.6-15.1c10.7-9.1,22.5-17,35.5-23.9c14-7.1,28.7-12.8,44-17.2
		c15.3-4.4,30.8-7.2,46.6-8.2c15.1-1.2,30.4-0.8,45.9,1.2c15.5,2,30.2,6.4,44,13c13.2,6.5,24.9,14.9,35.1,25.3
		C511.9,86.6,519.7,98.4,525.2,111.7z M296.8,246.7c5.2,1.4,10.8,2.6,16.7,3.6c-1.3-6.5-3.4-11.8-6.4-16c-3-4.2-6.3-7.6-9.8-10
		c-3.5-2.4-6.7-4.1-9.8-5c-3-0.9-5.1-1.4-6.1-1.4c-2.5,0.2-4.2,1.1-5,2.6c-0.8,1.5-1.2,3.2-1.1,5.1c0.1,1.9,0.5,3.9,1.3,6.1
		c0.7,2.1,1.6,3.8,2.7,5c2.3,3,4.9,5.2,7.9,6.5C290,244.5,293.2,245.7,296.8,246.7z"/>
	<path id="XMLID_8_" class="st0" d="M473,289.6c0.4-0.2,0.7-0.2,0.8,0.2c0.1,0.3-0.1,0.6-0.5,0.8c-0.2,0.2-1,1.3-2.4,3.2
		c-1.4,1.9-3,4.2-5,6.8c-2,2.6-4.1,5.3-6.4,8c-2.3,2.7-4.5,4.8-6.6,6.2c-2.9,2.2-5.9,3.4-8.8,3.6c-3.4,0.4-6.1,0-8.2-1.2
		c-2.7-1.2-4.2-3-4.4-5.4c-0.4-1.2-0.5-2.3-0.3-3.2c0.2-0.9,0.5-2.1,0.9-3.5c-1.7,2.2-3.9,4.8-6.8,7.7c-2.8,2.9-7.2,5.1-13.1,6.5
		c-2.3,0.4-4.5,0.7-6.6,0.8c-2.1,0.1-4.2-0.3-6.3-1.1c-3.4-1-5.9-2.7-7.5-5.1c-1.5-2.6-1.9-5.4-1.4-8.3c0.5-2.9,1.4-5.7,2.7-8.3
		c2.9-6.1,6.8-11.2,11.6-15.4c4.6-4,10.1-7.4,16.4-10c2.3-1,4.8-1.8,7.4-2.3c2.6-0.5,5.2-0.6,7.7-0.2c2.1,0.4,3.7,1.1,4.7,2.1
		c1.3,1.2,1.7,2.6,1.3,4.2c0,1.2-0.3,2.4-0.8,3.5c-0.5,1.1-1.1,2.2-1.7,3.2c-1.9,3-4.4,6.2-7.5,9.4c-0.4,0.2-0.7,0.2-0.9,0
		c-0.2-0.2-0.1-0.5,0.3-0.9l0.3-0.3c1.3-1.4,2.1-2.5,2.5-3.2c0.4-0.7,0.9-1.9,1.6-3.5c1-2.4-0.2-3.6-3.8-3.6c-2.1,0-4.8,0.3-8.2,0.9
		c-3.4,0.6-6.5,1.7-9.4,3.3c-1.5,0.8-3,1.8-4.6,2.9c-1.6,1.1-3,2.2-4.2,3.2c-1.3,1-2.5,2.1-3.6,3.3c-1.2,1.2-2.3,2.7-3.3,4.5
		c-1.3,1.8-2.1,4.3-2.5,7.6c-0.4,3.2-0.2,5.6,0.6,7.3c1.7,2.8,3.9,4.4,6.6,4.8c4.2,0.4,7.9,0.1,11-0.9c3.1-1,5.9-2.3,8.2-3.9
		c2.3-1.6,4.3-3.5,6-5.6c1.7-2.1,3.2-4.2,4.7-6.2c0.8-1.2,1.9-2.2,3.3-2.9c1.4-0.7,2.6-1.1,3.6-1.1c1,0,1.8,0.3,2.2,0.8
		c0.4,0.5,0.2,1.4-0.6,2.6c-0.4,0.4-0.8,1-1.3,1.8c-0.8,1.2-1.6,2.6-2.2,4.1c-0.6,1.5-0.7,3-0.3,4.4c0.4,1.2,0.8,2.2,1.3,3
		c0,0.2,0.2,0.4,0.6,0.6c0.4,0.4,1,0.8,1.9,1.2c1.3,0.6,2.9,0.6,4.9,0c2-0.6,3.3-1.1,3.9-1.5c2.7-1.6,5.3-3.8,7.9-6.5s4.8-5.4,6.8-8
		c2-2.6,3.7-4.9,5-7C471.6,290.9,472.5,289.8,473,289.6z"/>
	<path id="XMLID_10_" class="st0" d="M549.7,289.6c0.4-0.2,0.7-0.2,0.8,0.2c0.1,0.3-0.1,0.6-0.5,0.8c-0.2,0.2-1,1.3-2.4,3.2
		c-1.4,1.9-3,4.2-5,6.8c-2,2.6-4.1,5.3-6.4,8c-2.3,2.7-4.5,4.8-6.6,6.2c-2.9,2.2-5.9,3.4-8.8,3.6c-3.4,0.4-6.1,0-8.2-1.2
		c-2.7-1.2-4.2-3-4.4-5.4c-0.4-1.2-0.5-2.3-0.3-3.2c0.2-0.9,0.5-2.1,0.9-3.5c-1.7,2.2-3.9,4.8-6.8,7.7c-2.8,2.9-7.2,5.1-13.1,6.5
		c-2.3,0.4-4.5,0.7-6.6,0.8c-2.1,0.1-4.2-0.3-6.3-1.1c-3.4-1-5.9-2.7-7.5-5.1c-1.5-2.6-1.9-5.4-1.4-8.3c0.5-2.9,1.4-5.7,2.7-8.3
		c2.9-6.1,6.8-11.2,11.6-15.4c4.6-4,10.1-7.4,16.4-10c2.3-1,4.8-1.8,7.4-2.3c2.6-0.5,5.2-0.6,7.7-0.2c2.1,0.4,3.7,1.1,4.7,2.1
		c1.3,1.2,1.7,2.6,1.3,4.2c0,1.2-0.3,2.4-0.8,3.5c-0.5,1.1-1.1,2.2-1.7,3.2c-1.9,3-4.4,6.2-7.6,9.4c-0.4,0.2-0.7,0.2-0.9,0
		c-0.2-0.2-0.1-0.5,0.3-0.9l0.3-0.3c1.3-1.4,2.1-2.5,2.5-3.2c0.4-0.7,0.9-1.9,1.6-3.5c1-2.4-0.2-3.6-3.8-3.6c-2.1,0-4.8,0.3-8.2,0.9
		c-3.4,0.6-6.5,1.7-9.4,3.3c-1.5,0.8-3,1.8-4.6,2.9c-1.6,1.1-3,2.2-4.2,3.2c-1.3,1-2.5,2.1-3.6,3.3c-1.2,1.2-2.3,2.7-3.3,4.5
		c-1.3,1.8-2.1,4.3-2.5,7.6c-0.4,3.2-0.2,5.6,0.6,7.3c1.7,2.8,3.9,4.4,6.6,4.8c4.2,0.4,7.9,0.1,11-0.9c3.1-1,5.9-2.3,8.2-3.9
		c2.3-1.6,4.3-3.5,6-5.6c1.7-2.1,3.3-4.2,4.7-6.2c0.8-1.2,1.9-2.2,3.3-2.9c1.4-0.7,2.6-1.1,3.6-1.1c1,0,1.8,0.3,2.2,0.8
		c0.4,0.5,0.2,1.4-0.6,2.6c-0.4,0.4-0.8,1-1.3,1.8c-0.8,1.2-1.6,2.6-2.2,4.1s-0.7,3-0.3,4.4c0.4,1.2,0.8,2.2,1.3,3
		c0,0.2,0.2,0.4,0.6,0.6c0.4,0.4,1,0.8,1.9,1.2c1.3,0.6,2.9,0.6,4.9,0c2-0.6,3.3-1.1,3.9-1.5c2.7-1.6,5.3-3.8,7.9-6.5
		c2.5-2.7,4.8-5.4,6.8-8c2-2.6,3.7-4.9,5-7C548.4,290.9,549.3,289.8,549.7,289.6z"/>
	<path id="XMLID_12_" class="st0" d="M637.2,289.9c0.2-0.4,0.4-0.5,0.6-0.2c0.2,0.3,0.1,0.6-0.3,0.8c-1.1,1-2.8,2.4-5.3,4.1
		c-2.5,1.7-4.3,3.1-5.3,4.1c-3.1,2.2-5.6,4-7.2,5.4c-1.7,1.4-3.3,2.7-4.9,3.9c-1.6,1.2-3.3,2.5-5,3.9c-1.8,1.4-4.2,3.1-7.4,5.1
		c-5.2,10.5-10.5,20.9-15.7,31.2c-5.2,10.3-10.6,20.7-16,31.2c-3.8,7.3-7.6,14.6-11.5,21.9c-3.9,7.4-7.7,14.8-11.5,22.2
		c-3.6,7.1-7.1,14.1-10.7,21.2c-3.6,7.1-7.3,14.1-11.3,21.2c-1.9,3.4-3.8,6.9-5.7,10.3c-1.9,3.4-3.9,6.9-6,10.3
		c-1.3,2.2-2.5,4.3-3.8,6.2c-1.3,1.9-2.4,4-3.5,6.2c-0.6,1-1.9,3.1-3.9,6.2c-2,3.1-4.3,6.3-6.9,9.5c-2.6,3.2-5.4,5.8-8.3,7.9
		c-2.9,2-5.8,2.4-8.5,1.2c-3.6-1.8-6-3.7-7.2-5.6c-1.3-1.9-2.3-4.2-3.1-6.8c-1-3.8-1.7-7.7-1.9-11.6c-0.2-3.9-0.1-7.8,0.3-11.6
		c0.2-7.7,1.2-15.4,2.8-23.3c0.2-1.2,0.4-2.5,0.6-3.8c0.2-1.3,0.5-2.7,0.9-4.1c0.4-1.8,1-3.6,1.7-5.4c0.7-1.8,1.4-3.6,2-5.4
		c4.6-11.3,10.4-21.9,17.3-31.8c6.9-9.9,14.6-19.4,23-28.4c8.8-9.3,18-18,27.7-26.2c9.6-8.2,19.5-16.1,29.6-23.7c2.7-2,5.4-4,8-5.9
		c2.6-1.9,5.4-3.9,8.3-5.9c4-8.5,8-16.8,12-25c4-8.2,8.1-16.5,12.3-25c0.8-1.6,2.1-2.9,3.8-3.9c1.7-1,3.3-1.7,4.9-2
		c1.6-0.3,2.8-0.2,3.8,0.5s1,1.7,0.2,3.3c-2.1,3.8-3.8,7-5,9.4c-1.3,2.4-2.9,5.5-5,9.4c-2.1,4-4.1,8.1-6.1,12.1c-2,4-4,8.1-6.1,12.1
		c3.6-2.4,6.7-4.6,9.3-6.7c2.6-2,5.2-4,7.7-5.9c2.5-1.9,5-3.9,7.5-5.9C630.6,294.6,633.6,292.3,637.2,289.9z M569.5,363.7
		c2.9-6.3,6-12.5,9.1-18.8c3.1-6.3,6.2-12.5,9.1-18.8c-3.6,2.8-7.2,5.5-10.9,8.2c-3.7,2.6-7.3,5.3-10.9,8.2
		c-5,3.8-9.5,7.4-13.5,10.7c-4,3.3-7.9,6.7-11.6,10.1c-3.8,3.4-7.5,7.2-11.3,11.2c-3.8,4-8,8.6-12.6,13.6
		c-4.4,5.2-8.7,10.5-12.7,15.7c-4.1,5.2-7.9,10.8-11.5,16.6c-1.7,2.8-3.3,5.7-4.9,8.6c-1.6,2.9-3.2,5.9-4.9,8.9
		c-1.3,2.8-2.6,5.7-3.9,8.6c-1.4,2.9-2.6,5.9-3.6,8.9c-1,2.8-1.9,5.8-2.5,8.9c-0.6,3.1-1.3,6.2-1.9,9.2c-1,4.6-1.8,8.5-2.4,11.5
		c-0.5,3-0.7,6.6-0.5,10.6c0,3.4,0.2,7,0.6,10.7c0.4,3.7,1.6,7.1,3.5,10.1c1.5,2.6,3.5,4.3,6,5.1c2.1,0.4,3.6,0.5,4.4,0.3
		c1.9-0.2,3.8-1.2,5.7-3c1.9-1.8,3.5-3.7,4.9-5.7c1.4-2,2.7-4.1,3.9-6.4c1.3-2.2,2.5-4.3,3.6-6.4c1.2-2,2.4-4.1,3.6-6.4
		c4-7.1,7.8-14.1,11.3-21.2c3.6-7.1,7.1-14.1,10.7-21.2c3.6-7.3,7.1-14.6,10.7-21.9c3.6-7.4,7.1-14.7,10.7-21.9L569.5,363.7z
		 M610.7,281.5c0.4,0.6-0.3,1.3-2,2c-1.8,0.7-3.2,1.3-4.2,1.7c-4.6,1.8-9.1,3.8-13.5,6.1c-4.4,2.2-9,4.1-13.8,5.7
		c-4.6,1.6-9.3,3-14.2,4.2c-2.7,0.4-5.8,0.7-9.1,0.9c-3.4,0.2-5.2-0.8-5.7-3c-0.2-1,0.2-2.2,1.3-3.6c1-1.4,2.3-2.8,3.8-4.2
		c1.5-1.4,3.1-2.7,4.9-3.9c1.8-1.2,3.3-2.2,4.6-3c5.2-3.6,11.3-6.6,18.2-8.8c2.9-0.8,6.3-1.4,10.2-1.8c3.9-0.4,7.3-0.1,10.2,0.9
		c1.3,0.4,2.5,1,3.8,1.7c1.3,0.7,2.4,1.6,3.5,2.6C609.6,279.3,610.3,280.2,610.7,281.5z M600.4,285.7c1.3-0.6,2.6-1.2,3.9-1.8
		c1.4-0.6,2.8-1.2,4.2-1.8c-1.1-1.2-2.2-2.2-3.5-3c-1.7-1-3.8-1.7-6.3-2.1c-2.7-0.4-5.4-0.4-8,0.2c-2.6,0.5-5.1,1.3-7.4,2.3
		c-1.3,0.6-3.1,1.6-5.7,2.9c-2.5,1.3-4.9,2.8-7.2,4.5c-2.3,1.7-4.3,3.4-6,5c-1.7,1.6-2.3,3-1.9,4.2c0.2,1.2,1.4,1.8,3.5,1.7
		c2.1-0.1,4.5-0.6,7.2-1.4c2.7-0.8,5.5-1.8,8.3-2.9c2.8-1.1,5.2-2.1,7.1-2.9c1.9-0.8,3.8-1.6,5.7-2.4
		C596.3,287.3,598.3,286.5,600.4,285.7z"/>
</g>
<g id="XMLID_2_">
</g>
<g id="XMLID_3_">
</g>
<g id="XMLID_17_">
</g>
<g id="XMLID_18_">
</g>
<g id="XMLID_19_">
</g>
<g id="XMLID_20_">
</g>
<g id="XMLID_21_">
</g>
<g id="XMLID_22_">
</g>
<g id="XMLID_23_">
</g>
<g id="XMLID_24_">
</g>
<g id="XMLID_25_">
</g>
<g id="XMLID_26_">
</g>
<g id="XMLID_27_">
</g>
<g id="XMLID_28_">
</g>
<g id="XMLID_29_">
</g>
<g id="XMLID_30_">
</g>
</svg>
